HIERARCHY
ROOT Hips
{
	OFFSET 0.00000 0.00000 0.00000
	CHANNELS 6 Xposition Yposition Zposition Zrotation Yrotation Xrotation 
	JOINT LHipJoint
	{
		OFFSET 0 0 0
		CHANNELS 3 Zrotation Yrotation Xrotation
		JOINT LeftUpLeg
		{
			OFFSET 1.58895 -1.83665 0.71753
			CHANNELS 3 Zrotation Yrotation Xrotation
			JOINT LeftLeg
			{
				OFFSET 2.50528 -6.88321 0.00000
				CHANNELS 3 Zrotation Yrotation Xrotation
				JOINT LeftFoot
				{
					OFFSET 2.63244 -7.23257 0.00000
					CHANNELS 3 Zrotation Yrotation Xrotation
					JOINT LeftToeBase
					{
						OFFSET 0.23691 -0.65090 1.72750
						CHANNELS 3 Zrotation Yrotation Xrotation
						End Site
						{
							OFFSET 0.00000 -0.00000 0.92561
						}
					}
				}
			}
		}
	}
	JOINT RHipJoint
	{
		OFFSET 0 0 0
		CHANNELS 3 Zrotation Yrotation Xrotation
		JOINT RightUpLeg
		{
			OFFSET -1.51435 -1.83665 0.71753
			CHANNELS 3 Zrotation Yrotation Xrotation
			JOINT RightLeg
			{
				OFFSET -2.54551 -6.99375 0.00000
				CHANNELS 3 Zrotation Yrotation Xrotation
				JOINT RightFoot
				{
					OFFSET -2.66027 -7.30903 0.00000
					CHANNELS 3 Zrotation Yrotation Xrotation
					JOINT RightToeBase
					{
						OFFSET -0.22981 -0.63138 2.03959
						CHANNELS 3 Zrotation Yrotation Xrotation
						End Site
						{
							OFFSET -0.00000 -0.00000 1.07060
						}
					}
				}
			}
		}
	}
	JOINT LowerBack
	{
		OFFSET 0 0 0
		CHANNELS 3 Zrotation Yrotation Xrotation
		JOINT Spine
		{
			OFFSET -0.02651 1.86275 -0.11152
			CHANNELS 3 Zrotation Yrotation Xrotation
			JOINT Spine1
			{
				OFFSET 0.01019 1.86224 0.04087
				CHANNELS 3 Zrotation Yrotation Xrotation
				JOINT Neck
				{
					OFFSET 0 0 0
					CHANNELS 3 Zrotation Yrotation Xrotation
					JOINT Neck1
					{
						OFFSET -0.01926 1.80512 0.08867
						CHANNELS 3 Zrotation Yrotation Xrotation
						JOINT Head
						{
							OFFSET 0.05516 1.76451 -0.38475
							CHANNELS 3 Zrotation Yrotation Xrotation
							End Site
							{
								OFFSET 0.01592 1.82587 -0.14001
							}
						}
					}
				}
				JOINT LeftShoulder
				{
					OFFSET 0 0 0
					CHANNELS 3 Zrotation Yrotation Xrotation
					JOINT LeftArm
					{
						OFFSET 3.47116 1.51376 0.14491
						CHANNELS 3 Zrotation Yrotation Xrotation
						JOINT LeftForeArm
						{
							OFFSET 4.78095 -0.00000 0.00000
							CHANNELS 3 Zrotation Yrotation Xrotation
							JOINT LeftHand
							{
								OFFSET 3.58615 -0.00000 -0.00000
								CHANNELS 3 Zrotation Yrotation Xrotation
								JOINT LeftFingerBase
								{
									OFFSET 0 0 0
									CHANNELS 3 Zrotation Yrotation Xrotation
									JOINT LeftHandIndex1
									{
										OFFSET 0.65981 -0.00000 0.00000
										CHANNELS 3 Zrotation Yrotation Xrotation
										End Site
										{
											OFFSET 0.53196 -0.00000 0.00000
										}
									}
								}
								JOINT LThumb
								{
									OFFSET 0 0 0
									CHANNELS 3 Zrotation Yrotation Xrotation
									End Site
									{
										OFFSET 0.54008 -0.00000 0.54008
									}
								}
							}
						}
					}
				}
				JOINT RightShoulder
				{
					OFFSET 0 0 0
					CHANNELS 3 Zrotation Yrotation Xrotation
					JOINT RightArm
					{
						OFFSET -3.31725 1.61216 0.35156
						CHANNELS 3 Zrotation Yrotation Xrotation
						JOINT RightForeArm
						{
							OFFSET -4.48913 -0.00000 0.00000
							CHANNELS 3 Zrotation Yrotation Xrotation
							JOINT RightHand
							{
								OFFSET -3.70510 -0.00000 0.00000
								CHANNELS 3 Zrotation Yrotation Xrotation
								JOINT RightFingerBase
								{
									OFFSET 0 0 0
									CHANNELS 3 Zrotation Yrotation Xrotation
									JOINT RightHandIndex1
									{
										OFFSET -0.44914 -0.00000 0.00000
										CHANNELS 3 Zrotation Yrotation Xrotation
										End Site
										{
											OFFSET -0.36211 -0.00000 0.00000
										}
									}
								}
								JOINT RThumb
								{
									OFFSET 0 0 0
									CHANNELS 3 Zrotation Yrotation Xrotation
									End Site
									{
										OFFSET -0.36763 -0.00000 0.36763
									}
								}
							}
						}
					}
				}
			}
		}
	}
}
MOTION
Frames: 14
Frame Time: .0083333
-0.5373 18.6809 5.7487 0 0 0 0 0 0 -21 0 0 0 0 0 0 0 0 0 0 0 0 0 0 21 0 0 0 0 0 0 0 0 0 0 0 0 0 0 0 0 0 0 0 0 0 0 -16 0 0 21 0 0 11 0 0 0 -8 0 0 0 0 0 0 0 0 0 0 0 0 0 0 0 0 0 0 0 0 8 0 0 0 0 0 0 0 0 0 0 0 0 0 0 0 0 0
-0.5373 18.6809 5.7487 -1.4165 -3.0609 2.4412 0.0000 0.0000 0.0000 -13.8576 -7.3204 -1.4802 1.2587 7.1121 20.0480 1.8638 8.7039 -30.1550 7.8253 -15.9892 -51.9309 0.0000 0.0000 0.0000 0.0000 0.0000 0.0000 0.0000 0.0000 0.0000 -0.0000 -0.0000 0.0000 -0.0000 -0.0000 0.0000 -0.5235 1.8092 0.3309 -0.3818 2.3973 -2.2422 -0.1584 1.2035 -2.4893 -1.6807 -2.9692 -12.1008 4.8988 -4.9721 22.5324 1.3864 -1.9463 9.2436 0.0000 0.0000 0.0000 -90.6357 10.7997 30.4588 20.2383 -30.9283 -5.6533 -0.0000 -0.0000 10.9283 8.6604 -23.8269 -3.5210 -7.1250 0.0000 -0.0000 -12.6937 6.3938 11.4938 0.0000 0.0000 0.0000 90.2861 -16.3038 28.6058 -23.4031 34.5266 -7.3655 0.0000 0.0000 21.9067 -9.3601 -29.7953 4.6824 7.1250 -0.0000 -0.0000 24.3662 -58.4044 -8.3048
-0.5372 18.6818 5.7457 -1.4250 -3.0780 2.4430 0.0000 0.0000 0.0000 -13.8466 -7.3454 -1.4912 1.2610 7.1185 20.0668 1.8676 8.6771 -30.1616 7.8076 -15.9759 -51.8666 0.0000 0.0000 0.0000 0.0000 0.0000 0.0000 0.0000 0.0000 0.0000 -0.0000 -0.0000 0.0000 -0.0000 -0.0000 0.0000 -0.5292 1.8147 0.3550 -0.3675 2.4047 -2.2420 -0.1418 1.2074 -2.5034 -1.6892 -2.9477 -12.0950 4.9160 -4.9438 22.5265 1.3972 -1.9321 9.2400 0.0000 0.0000 0.0000 -90.6372 10.7899 30.5173 20.3290 -31.0367 -5.7000 -0.0000 -0.0000 11.1372 8.5099 -23.5272 -3.4181 -7.1250 0.0000 -0.0000 -12.7814 6.7025 11.4994 0.0000 0.0000 0.0000 90.2724 -16.2900 28.5951 -23.3840 34.5060 -7.3547 0.0000 0.0000 21.9191 -9.4096 -29.8008 4.7083 7.1250 -0.0000 -0.0000 24.3202 -58.4202 -8.2973
-0.5373 18.6829 5.7427 -1.4277 -3.0968 2.4743 0.0000 0.0000 0.0000 -13.8461 -7.4107 -1.5110 1.2614 7.1196 20.0702 1.8687 8.6897 -30.1768 7.7741 -15.9506 -51.7448 0.0000 0.0000 0.0000 0.0000 0.0000 0.0000 0.0000 0.0000 0.0000 -0.0000 -0.0000 0.0000 -0.0000 -0.0000 0.0000 -0.5532 1.8191 0.3348 -0.3440 2.4109 -2.2365 -0.1036 1.2113 -2.4885 -1.6840 -2.9362 -12.1062 4.8814 -4.9198 22.5192 1.3871 -1.9241 9.2375 -0.0000 0.0000 0.0000 -90.6559 10.7372 30.5086 20.3241 -31.0309 -5.6975 -0.0000 -0.0000 11.1689 8.4762 -23.6308 -3.4186 -7.1250 0.0000 -0.0000 -12.8035 6.6043 11.5453 -0.0000 0.0000 0.0000 90.2315 -16.2725 28.6334 -23.3729 34.4941 -7.3484 0.0000 0.0000 21.8682 -9.6359 -29.7827 4.8205 7.1250 -0.0000 -0.0000 24.0766 -58.4534 -8.2272
-0.5362 18.6830 5.7400 -1.4178 -3.1014 2.4767 0.0000 0.0000 0.0000 -13.8602 -7.4161 -1.5241 1.2622 7.1215 20.0759 1.8649 8.7384 -30.1839 7.7784 -15.9538 -51.7605 0.0000 0.0000 0.0000 0.0000 0.0000 0.0000 0.0000 0.0000 0.0000 -0.0000 -0.0000 0.0000 -0.0000 -0.0000 0.0000 -0.5605 1.8229 0.3436 -0.3400 2.4158 -2.2249 -0.0956 1.2139 -2.4820 -1.6533 -2.9449 -12.1129 4.8285 -4.9259 22.5197 1.3630 -1.9298 9.2370 -0.0000 0.0000 0.0000 -90.6456 10.6674 30.5219 20.3143 -31.0192 -5.6924 -0.0000 -0.0000 11.1360 8.4264 -23.6134 -3.3959 -7.1250 0.0000 -0.0000 -12.8338 6.6262 11.5685 -0.0000 0.0000 0.0000 90.2101 -16.2614 28.6651 -23.3536 34.4732 -7.3375 0.0000 0.0000 21.8165 -9.7510 -29.6542 4.8599 7.1250 -0.0000 -0.0000 23.8611 -58.3623 -8.0951
-0.5348 18.6829 5.7375 -1.4008 -3.0838 2.4652 0.0000 0.0000 0.0000 -13.8724 -7.3765 -1.5429 1.2620 7.1212 20.0748 1.8628 8.7123 -30.1535 7.7997 -15.9700 -51.8382 0.0000 0.0000 0.0000 0.0000 0.0000 0.0000 0.0000 0.0000 0.0000 -0.0000 -0.0000 0.0000 -0.0000 -0.0000 0.0000 -0.5563 1.8237 0.3663 -0.3491 2.4166 -2.2139 -0.1078 1.2141 -2.4828 -1.6450 -2.9639 -12.1158 4.8171 -4.9517 22.5177 1.3546 -1.9424 9.2373 -0.0000 0.0000 0.0000 -90.6013 10.6363 30.5964 20.3467 -31.0577 -5.7091 -0.0000 -0.0000 11.0310 8.3329 -23.5264 -3.3461 -7.1250 0.0000 -0.0000 -12.8900 6.7205 11.5978 -0.0000 0.0000 0.0000 90.2109 -16.2629 28.6503 -23.3329 34.4509 -7.3258 0.0000 0.0000 21.8787 -9.8249 -29.4512 4.8669 7.1250 -0.0000 -0.0000 23.6319 -58.1941 -7.9146
-0.5345 18.6825 5.7354 -1.3894 -3.0618 2.4594 0.0000 0.0000 0.0000 -13.8715 -7.3335 -1.5737 1.2626 7.1227 20.0793 1.8531 8.6810 -30.0718 7.8088 -15.9768 -51.8710 0.0000 0.0000 0.0000 0.0000 0.0000 0.0000 0.0000 0.0000 0.0000 -0.0000 -0.0000 0.0000 -0.0000 -0.0000 0.0000 -0.5600 1.8210 0.3868 -0.3549 2.4128 -2.2170 -0.1124 1.2122 -2.4974 -1.6422 -2.9729 -12.1021 4.8272 -4.9675 22.5219 1.3559 -1.9486 9.2369 -0.0000 0.0000 0.0000 -90.5315 10.6668 30.7183 20.4150 -31.1391 -5.7444 -0.0000 -0.0000 10.9165 8.2555 -23.4142 -3.2998 -7.1250 0.0000 -0.0000 -12.9362 6.8379 11.6114 -0.0000 0.0000 0.0000 90.2144 -16.2655 28.6549 -23.3034 34.4190 -7.3091 0.0000 0.0000 21.9081 -10.0028 -29.3700 4.9440 7.1250 -0.0000 -0.0000 23.3905 -58.1590 -7.8079
-0.5337 18.6825 5.7344 -1.3812 -3.0438 2.4555 0.0000 0.0000 0.0000 -13.8835 -7.3392 -1.5812 1.2642 7.1270 20.0921 1.8452 8.7107 -30.0404 7.8041 -15.9733 -51.8541 0.0000 0.0000 0.0000 0.0000 0.0000 0.0000 0.0000 0.0000 0.0000 -0.0000 -0.0000 0.0000 -0.0000 -0.0000 0.0000 -0.5618 1.8082 0.3958 -0.3486 2.3956 -2.2217 -0.1050 1.2038 -2.5076 -1.6291 -2.9664 -12.0647 4.8147 -4.9585 22.5238 1.3510 -1.9452 9.2296 0.0000 0.0000 0.0000 -90.5128 10.6699 30.7326 20.4356 -31.1636 -5.7551 -0.0000 -0.0000 10.9189 8.3186 -23.3672 -3.3190 -7.1250 0.0000 -0.0000 -12.8969 6.8778 11.5640 0.0000 0.0000 0.0000 90.1939 -16.2716 28.6953 -23.2990 34.4141 -7.3066 0.0000 0.0000 21.8567 -9.9611 -29.3371 4.9181 7.1250 -0.0000 -0.0000 23.4080 -58.1200 -7.7918
-0.5317 18.6840 5.7334 -1.3849 -3.0176 2.4569 0.0000 0.0000 0.0000 -13.8901 -7.3898 -1.5797 1.2656 7.1308 20.1034 1.8522 8.7319 -30.0991 7.8153 -15.9817 -51.8947 0.0000 0.0000 0.0000 0.0000 0.0000 0.0000 0.0000 0.0000 0.0000 -0.0000 -0.0000 0.0000 -0.0000 -0.0000 0.0000 -0.5381 1.7951 0.3989 -0.3373 2.3788 -2.2255 -0.1063 1.1950 -2.5127 -1.6416 -2.9643 -12.0255 4.8203 -4.9541 22.5227 1.3561 -1.9444 9.2221 -0.0000 -0.0000 0.0000 -90.5308 10.6380 30.6466 20.4205 -31.1457 -5.7473 -0.0000 -0.0000 11.0810 8.3846 -23.3865 -3.3483 -7.1250 0.0000 -0.0000 -12.8565 6.8525 11.5323 -0.0000 -0.0000 0.0000 90.1701 -16.3067 28.7286 -23.3320 34.4498 -7.3252 0.0000 0.0000 21.8101 -9.8347 -29.3486 4.8564 7.1250 -0.0000 -0.0000 23.5448 -58.1031 -7.8311
-0.5305 18.6847 5.7321 -1.3947 -2.9931 2.4678 0.0000 0.0000 0.0000 -13.8857 -7.4454 -1.5895 1.2664 7.1330 20.1100 1.8586 8.7427 -30.1469 7.8370 -15.9981 -51.9736 0.0000 0.0000 0.0000 0.0000 0.0000 0.0000 0.0000 0.0000 0.0000 -0.0000 -0.0000 0.0000 -0.0000 -0.0000 0.0000 -0.5081 1.7985 0.3933 -0.3312 2.3840 -2.2293 -0.1168 1.1971 -2.5126 -1.6908 -2.9789 -12.0383 4.8497 -4.9727 22.5544 1.3722 -1.9532 9.2383 0.0000 -0.0000 0.0000 -90.5136 10.5927 30.6172 20.4043 -31.1263 -5.7389 -0.0000 -0.0000 11.1790 8.3149 -23.4585 -3.3297 -7.1250 0.0000 -0.0000 -12.9002 6.7887 11.5900 0.0000 -0.0000 0.0000 90.1690 -16.3267 28.7177 -23.3212 34.4381 -7.3191 0.0000 0.0000 21.8452 -9.9417 -29.3733 4.9138 7.1250 -0.0000 -0.0000 23.4549 -58.1488 -7.8251
-0.5302 18.6836 5.7305 -1.3922 -2.9733 2.4771 0.0000 0.0000 0.0000 -13.8843 -7.4387 -1.6157 1.2665 7.1334 20.1111 1.8497 8.7451 -30.0916 7.8416 -16.0015 -51.9902 0.0000 0.0000 0.0000 0.0000 0.0000 0.0000 0.0000 0.0000 0.0000 -0.0000 -0.0000 0.0000 -0.0000 -0.0000 0.0000 -0.4979 1.8010 0.3914 -0.3219 2.3878 -2.2326 -0.1131 1.1989 -2.5149 -1.7246 -2.9976 -12.0683 4.8382 -4.9911 22.6008 1.3715 -1.9646 9.2613 -0.0000 -0.0000 0.0000 -90.4885 10.5443 30.6653 20.3850 -31.1035 -5.7289 -0.0000 -0.0000 11.1003 8.3302 -23.5535 -3.3486 -7.1250 0.0000 -0.0000 -12.8921 6.6943 11.6065 -0.0000 -0.0000 0.0000 90.1625 -16.3083 28.6866 -23.2658 34.3782 -7.2878 0.0000 0.0000 21.9611 -9.9669 -29.3472 4.9225 7.1250 -0.0000 -0.0000 23.4096 -58.1304 -7.7983
-0.5302 18.6832 5.7294 -1.3769 -2.9592 2.4753 0.0000 0.0000 0.0000 -13.8932 -7.4199 -1.6275 1.2661 7.1322 20.1076 1.8455 8.7178 -30.0472 7.8279 -15.9912 -51.9405 0.0000 0.0000 0.0000 0.0000 0.0000 0.0000 0.0000 0.0000 0.0000 -0.0000 -0.0000 0.0000 -0.0000 -0.0000 0.0000 -0.5203 1.7829 0.3931 -0.2953 2.3637 -2.2372 -0.0729 1.1876 -2.5226 -1.7330 -2.9957 -12.0541 4.7759 -4.9728 22.6215 1.3539 -1.9633 9.2634 -0.0000 -0.0000 0.0000 -90.5226 10.5394 30.6356 20.3852 -31.1037 -5.7290 -0.0000 -0.0000 11.0865 8.4629 -23.6083 -3.4101 -7.1250 0.0000 -0.0000 -12.8113 6.6276 11.5468 -0.0000 -0.0000 0.0000 90.1144 -16.3066 28.7115 -23.2476 34.3584 -7.2775 0.0000 0.0000 22.0066 -9.8267 -29.3971 4.8597 7.1250 -0.0000 -0.0000 23.5892 -58.1454 -7.8712
-0.5301 18.6836 5.7283 -1.3728 -2.9529 2.4717 0.0000 0.0000 0.0000 -13.9046 -7.4855 -1.5999 1.2654 7.1304 20.1024 1.8529 8.7159 -30.0929 7.8128 -15.9799 -51.8857 0.0000 0.0000 0.0000 0.0000 0.0000 0.0000 0.0000 0.0000 0.0000 -0.0000 -0.0000 0.0000 -0.0000 -0.0000 0.0000 -0.5393 1.7653 0.3847 -0.2628 2.3407 -2.2383 -0.0282 1.1769 -2.5210 -1.7423 -2.9911 -12.0120 4.7143 -4.9490 22.6111 1.3377 -1.9606 9.2494 0.0000 -0.0000 0.0000 -90.5780 10.5501 30.5567 20.3887 -31.1078 -5.7308 -0.0000 -0.0000 11.1858 8.5337 -23.5977 -3.4375 -7.1250 0.0000 -0.0000 -12.7678 6.6310 11.5046 0.0000 -0.0000 0.0000 90.0680 -16.3189 28.7399 -23.2571 34.3688 -7.2829 0.0000 0.0000 21.9849 -9.7382 -29.3903 4.8143 7.1250 -0.0000 -0.0000 23.6737 -58.1200 -7.8869
-0.5297 18.6838 5.7267 -1.3805 -2.9588 2.4676 0.0000 0.0000 0.0000 -13.9011 -7.5106 -1.5864 1.2648 7.1287 20.0973 1.8554 8.7292 -30.1174 7.8154 -15.9818 -51.8949 0.0000 0.0000 0.0000 0.0000 0.0000 0.0000 0.0000 0.0000 0.0000 -0.0000 -0.0000 0.0000 -0.0000 -0.0000 0.0000 -0.5284 1.7706 0.4032 -0.2516 2.3481 -2.2461 -0.0237 1.1805 -2.5394 -1.7452 -2.9995 -11.9631 4.7059 -4.9573 22.5922 1.3350 -1.9667 9.2337 -0.0000 -0.0000 0.0000 -90.5758 10.5374 30.5624 20.3647 -31.0793 -5.7184 -0.0000 -0.0000 11.2322 8.5649 -23.5428 -3.4427 -7.1250 0.0000 -0.0000 -12.7479 6.6817 11.4729 -0.0000 -0.0000 0.0000 90.0999 -16.3097 28.6737 -23.2373 34.3473 -7.2717 0.0000 0.0000 22.0057 -9.7199 -29.2784 4.7885 7.1250 -0.0000 -0.0000 23.6083 -58.0144 -7.8026
